<?xml version="1.0" encoding="utf-8"?>
<!-- Generator: Adobe Illustrator 15.0.0, SVG Export Plug-In  -->
<!DOCTYPE svg PUBLIC "-//W3C//DTD SVG 1.1//EN" "http://www.w3.org/Graphics/SVG/1.1/DTD/svg11.dtd" [
	<!ENTITY ns_flows "http://ns.adobe.com/Flows/1.0/">
]>
<svg version="1.1"
	 xmlns="http://www.w3.org/2000/svg" xmlns:xlink="http://www.w3.org/1999/xlink" xmlns:a="http://ns.adobe.com/AdobeSVGViewerExtensions/3.0/"
	 x="0px" y="0px" width="266px" height="265px" viewBox="0 0 266 265" overflow="visible" enable-background="new 0 0 266 265"
	 xml:space="preserve">
<defs>
</defs>
<path fill="#FFFFFF" d="M26.667,99c-0.333,3-3,12.333-5.167,17.167s2.5,3.667,5.5,3s12.833-2,15.833-2.167S47,116,47,114.5
	s-0.667-4.333-1.333-7.5s-2.333-15.5-2.5-19.5s0.167-13.167,1.167-14.5S54,67,55.167,67s4.5,4,7.167,6.167s9.167,12,10.833,15
	s8.167,18.167,9,21.333s2,5.333,4.833,6.167s24.333,5.667,27.833,6.167s3.5-1.167,2.667-2.667s-3.167-4-4-5.333
	s-1.333-3-1.833-4.833s-2.5-2.833-4.5-3.5s-3.5-2.167-6-5.167S95.833,94.167,94,91.667s-9.333-13.333-11.833-16.333
	s-8.833-10-11-11.833S69.333,59,70,57.333s5.667-5.333,8.5-8.167s8-8.333,11.167-11.5S101.833,24,103.833,20.833
	s3.667-6.5,3.333-8.667s-4.5-1.333-8-1.333S94.333,10.5,90.667,11S86,17.833,84.5,20.5s-5.833,7.833-8.667,9.667s-6.667,4-9,5.667
	s-10.5,8.333-14.167,11.333s-8,5-9.167,3.667s0.333-6,0.667-11.833s2-15.5,2.667-19.667s1-3.5,3-7.167s-1.5-5-4-4.5
	S39.167,9.5,34.667,9.833S27.167,9.667,23,9.667c0,0-1.833,0.333-1.667,2S22.5,17,23.5,20.5s2.333,16.333,2.667,24
	s0.167,27.333,0.333,29s3.167,3.5,4,6.5s-1.833,4.167-2.667,5.167s-0.5,4.667,0.167,5.5s0.333,2.167-0.167,2.833S27,96,26.667,99z"
	/>
<path fill="#FFFFFF" d="M266,67.167c0-5.5-0.167-19-0.333-24.333S265.5,9.167,265.5,6.5s-1.167-3.833-3.833-3.833
	S245.333,3.5,239.667,4S223,5.167,215.167,5.667S204.334,6.5,195.334,6s-23-2.667-29.5-3.5s-18.5-2.333-22.667-2.5c0,0-3,0.667-3,3
	s0.667,13.333,1.333,17.667S142.334,43,142.667,49s-0.667,38.5-1,42.667S141,121.167,140.834,125s0.5,4.833,2.666,4.5
	s15.167,1.333,22.667,1.167s35,2.834,44,2.334s44.5-1.5,50.167-1.834s3.666-3.833,3.5-6s1.5-23.5,1.666-28.5S266,72.667,266,67.167z
	 M246.334,24.833c-0.667,3-9.166,18.667-13.5,25.167s-10,14.167-11.667,16.5s-3.666,3.5-4.333,7.167s-0.5,9.5,0,14.5
	s0.334,11.5,1,14.833s2,7.667,2,10s-0.5,5.5-5,5.333c-3.664-0.136-4.301-0.644-5.667-0.5c-3.167,0.333-5.667,3.5-8,3.167
	c-1.494-0.213-3.666-0.667-2.833-7.333s2.667-17.167,3-20.5s2.167-12.333,2-14.333s-2.667-5.5-4.667-7.667s-8.999-10.5-11.833-14.5
	s-9-14.167-11.167-17s-5.166-7.833-7.833-10s-5.834-5-7.834-6.833s-3.666-4.167-0.166-4.667s18.166,0,20.833,1.167
	s5.999,2.5,6.833,5s1.666,6.667,3,9.333s5.833,9.333,8,12.833s7.168,11.5,8.834,12.667s4.334,1,5.5-1.167s1.667-4.834,2-6.167
	s-0.168-2.833,0.666-4S220.001,41,222.334,38s6.167-8,6.5-9.667s-0.668-4.333-1.834-5S225.833,20,228,19.5s7.167-0.833,10.167-0.833
	s6,0.167,7,0.833S247.001,21.833,246.334,24.833z"/>
<path fill="#FFFFFF" d="M136.167,128.833c-3.667,0.167-27.667,1.833-32.833,2s-28.667,0.833-28.667,0.833
	c-7.667-0.333-23-2.833-32-2.667S10.5,131.667,7.5,131.834s-4.5,0-4.5,2.833s-0.333,20.334-0.5,29S0,196,0,203.833
	S0.167,244,0.333,248.5s0.5,5.166,3,5.833S9.167,256.5,11,259s1.833,4.333,5.667,4.5s20,1.499,31.833,1.833s27.667-0.5,39.833-1
	s27.167-1.167,33.5-1s10.333,0.5,12,0.5s2.5,0.001,2.667-4.666s0.999-32.5,0.833-41.5s1.166-22.501,1.5-29.834s1-19.833,1.167-29
	s1.667-21.333,1.5-24.833S139.834,128.667,136.167,128.833z M124.833,173.833c-0.167,5.166-1.5,5.667-3.667,7s-10,0.5-13.167,0.334
	s-3.5-1.5-3.5-3.167s0-4.833-0.833-7.667S101.167,162.5,97,159.5s-12-5.333-19.667-5.833s-17-0.334-21.667,1.166
	S45,162,39.5,169.167s-8.833,25-8.833,35.666S37,226.667,41.333,231.5s12.167,10.833,29.5,11.667s23.5-4.334,26.5-6
	s5.167-5.5,5.333-8.334s1.667-5.833,4.5-6.5s9.833-1.833,13.667-2s3.667,2.5,3.333,4.5s-2.167,5.5-5.333,10.5
	s-9.333,10.334-18.667,15.167S78,253.667,68.833,253.667S45.5,252.667,41,251.5S29.5,242,26.333,238S18.667,223,14.667,214.167
	s-4.5-14.667-3.833-22.667s5.167-21.666,6.833-24.166s6.167-6.667,9-9S35,152.667,38.833,152S45,151.167,49,149.833
	s10.667-3.667,15-4.834s13-2.166,20.5-1.166s17.167,7.5,20,10.5s3.833,2,4.5,0.5s0.5-3.5,0.5-6.667s3.167-3.833,7.167-4
	c0,0,3-0.166,5.167,0.501s2.667,3.666,3.167,7.833S125,168.667,124.833,173.833z"/>
<path fill="#FFFFFF" d="M256.333,225.167c-4.5,0.5-17.167,1.167-19,1.167s-2.667,1-3.5,3S224.333,243.5,214.5,244
	s-18.667-0.168-25.5-6.834s-14.667-16-17-26.5S171.5,198.5,171.5,195s0.499-7.001,0.833-10.834s3.334-9.666,4.167-12.833
	s1.833-8.999,7.833-11.833S195,156,204,156.333s19.167,2.499,23.167,4.333s7.999,3.333,8.666,6s0.834,9.833,1.167,11.5
	s1.166,2.834,3.833,2.667s9.501-1.499,11.334-1.333s2.5-0.834,2.5-3.334s-0.166-25.5,0.167-27.833s-0.834-2.5-0.834-2.5
	c-2.333-0.334-5.334-2.5-7.167-2.5S243.667,144.5,243.5,147s-1.333,6.167-3,7.167s-9.833-2.833-14.5-5s-14-6.333-26-6.5
	s-20.833-0.001-28.833,6.833s-12.333,10.666-14,16.5s-1.482,10.573-2.5,16.001c-0.5,2.666-7.834,7.5-6.334,22.833s4.166,23.667,8,29
	s9.834,13.333,19.167,16.833s11.833,4.834,20,5.334s26.333-0.001,31.833-0.834s17.333-6.999,22-11.666s9.501-12.501,9.834-14.834
	S260.833,224.667,256.333,225.167z"/>
</svg>
